<svg width="1822" height="1080" viewBox="0 0 1822 1080" fill="none" xmlns="http://www.w3.org/2000/svg">
<path d="M497.267 248.378C493.664 245.197 489.607 242.571 485.229 240.588C479.266 237.746 473.041 235.493 466.641 233.86C445.044 228.371 423.447 223.945 401.85 219.519C385.74 216.332 369.985 213.499 354.052 210.135C346.971 208.542 346.086 207.303 346.086 199.866V180.745C346.028 173.26 344.712 165.839 342.192 158.791C335.286 137.726 327.128 117.093 317.762 97.0009C311.512 83.6474 304.538 70.6445 296.873 58.05C293.461 51.6238 288.361 46.2498 282.123 42.5062C275.884 38.7627 268.743 36.7913 261.468 36.8042C250.138 36.8042 238.985 35.3877 227.833 34.5025C220.062 33.9623 212.449 32.0439 205.35 28.8369C194.784 23.5053 183.689 19.2923 172.247 16.2665C170.581 15.8923 168.974 15.2968 167.467 14.496C160.174 11.5196 153.508 7.1949 147.817 1.74842C146.971 0.891812 145.833 0.38599 144.63 0.332027C143.553 -0.110676 142.344 -0.110676 141.267 0.332027L137.903 2.81071C132.811 7.10191 127.362 10.9519 121.617 14.3189C119.664 15.2626 117.965 16.6586 116.66 18.391C115.411 20.1781 114.62 22.2456 114.359 24.4107C114.039 26.4099 113.505 28.3687 112.766 30.2533C109.933 36.273 106.747 42.4697 103.914 47.9582C101.075 53.5136 97.632 58.7387 93.6469 63.5386C92.3153 65.0014 91.2382 66.6771 90.4604 68.496C88.8672 72.0369 89.0442 73.4533 91.8767 75.755C93.2291 76.8341 94.3695 78.1548 95.2401 79.6501C95.9781 81.2147 96.4565 82.889 96.6563 84.6074C96.8529 86.6386 97.208 88.6513 97.7185 90.6271C98.4579 94.5297 100.373 98.1128 103.206 100.896L104.977 102.666C105.742 103.556 106.179 104.681 106.216 105.853C106.178 107.079 105.743 108.26 104.977 109.217L101.613 112.404L85.1497 124.621C79.8389 128.516 74.351 132.411 69.5713 136.66C58.9658 145.768 49.6194 156.247 41.7782 167.821C36.8683 175.567 30.911 182.598 24.0756 188.712C17.3368 195.028 9.5492 200.12 1.06218 203.762L0 205.709H8.14319C8.14319 205.709 9.73643 205.709 9.73643 207.126C9.96657 207.754 9.96657 208.444 9.73643 209.073L5.13378 211.729C5.05702 212.079 5.05702 212.441 5.13378 212.791C5.13378 212.791 5.13378 212.791 5.13378 213.676H7.25807C9.8646 213.728 12.4155 212.919 14.5161 211.375L26.3769 202.345C29.5634 200.044 32.3958 197.388 35.4052 195.086C39.4123 192.034 43.9854 189.807 48.8593 188.535H52.9309C53.8648 188.549 54.7555 188.93 55.4092 189.598C55.7528 189.872 56.0277 190.223 56.2121 190.623C56.3965 191.023 56.4853 191.46 56.4714 191.899V196.68C56.0288 199.079 56.0288 201.539 56.4714 203.939C57.3761 206.268 58.7637 208.38 60.543 210.135C61.9592 211.729 63.9065 211.021 64.7916 209.073C65.541 206.395 66.1322 203.676 66.5619 200.929C68.8633 191.191 70.8105 181.453 72.7578 171.539C73.0665 168.586 74.1675 165.772 75.9443 163.394C77.8168 161.053 80.2534 159.225 83.0254 158.083C84.5745 157.617 86.0608 156.963 87.451 156.135C96.3023 151.886 105.154 147.991 114.359 143.565C119.493 140.909 124.095 137.722 129.052 134.535L132.062 132.765C133.169 131.912 134.569 131.53 135.956 131.703C136.666 131.714 137.366 131.878 138.007 132.183C138.649 132.489 139.217 132.929 139.674 133.473C142.152 135.421 144.099 137.722 146.401 139.67C148.702 141.617 149.233 142.857 151.889 143.742L154.367 140.201C159.147 143.388 160.209 146.221 158.616 150.647C157.649 152.883 156.463 155.018 155.075 157.021C148.604 167.181 143.766 178.293 140.736 189.952C139.61 194.775 138.131 199.509 136.31 204.116C135.241 206.948 134.354 209.846 133.655 212.791C132.841 216.758 133.603 220.885 135.779 224.299C136.374 225.582 137.367 226.638 138.612 227.309C139.994 227.744 141.477 227.744 142.86 227.309C142.86 226.424 142.86 225.893 143.922 225.007C144.985 224.122 145.339 217.748 146.224 214.207C146.748 210.181 148.137 206.315 150.295 202.876C153.659 197.919 155.96 197.742 159.324 202.876C159.324 203.762 160.386 204.824 161.271 205.886C161.465 206.46 161.837 206.956 162.333 207.303C162.333 207.303 164.634 207.303 164.811 207.303C164.989 206.129 164.989 204.935 164.811 203.762C164.811 196.857 163.572 190.306 163.041 183.401V177.558C162.523 175.886 162.523 174.096 163.041 172.424C163.748 170.92 164.849 169.635 166.228 168.706L171.715 163.926H176.141C177.604 163.692 179.031 163.275 180.39 162.686C185.524 166.935 190.126 171.893 195.437 176.142C196.565 175.754 197.637 175.219 198.623 174.548L201.81 176.85L204.288 174.725H209.776C211.192 170.122 208.891 165.873 209.776 160.385C214.556 165.873 216.68 172.601 221.283 177.027C222.522 175.611 221.283 174.725 221.283 173.84L215.972 161.978L204.465 132.411L203.403 129.047C203.049 127.175 203.049 125.253 203.403 123.381C203.891 121.598 204.802 119.958 206.059 118.601C207.326 116.989 208.685 115.452 210.13 113.998C210.705 113.166 211.58 112.59 212.571 112.392C213.562 112.194 214.591 112.389 215.441 112.935L226.771 119.486C236.692 125.118 246.162 131.511 255.095 138.607C260.531 142.541 264.644 148.033 266.888 154.356C269.133 160.68 269.403 167.537 267.664 174.017C265.893 181.807 263.946 189.244 261.999 196.857C258.289 209.925 256.5 223.463 256.688 237.047C256.577 249.932 260.959 262.453 269.08 272.457C272.025 275.75 274.148 279.693 275.276 283.965C276.838 289.126 277.202 294.576 276.338 299.899C275.453 307.512 274.037 314.949 273.506 322.562C272.443 334.424 271.735 346.286 271.027 357.971C270.614 368.801 269.311 379.578 267.133 390.194C264.515 404.347 258.968 417.795 250.846 429.676C242.344 442.169 235.556 455.746 230.665 470.044C225.709 483.499 221.814 498.726 217.919 513.067C214.91 524.221 211.546 535.375 208.537 546.529C207.702 549.83 206.06 552.872 203.757 555.381C201.432 557.982 198.428 559.882 195.083 560.87H193.844C191.157 561.299 188.743 562.76 187.117 564.942C185.413 567.165 184.594 569.94 184.815 572.732V575.034C184.815 580.699 183.753 586.188 182.691 591.676C181.629 597.165 179.151 606.726 177.38 614.516C175.147 625.816 177.164 637.543 183.045 647.447C184.303 649.449 185.724 651.344 187.294 653.113C188.22 653.924 189.229 654.636 190.303 655.237C190.881 655.404 191.495 655.404 192.074 655.237C192.711 655.41 193.383 655.41 194.021 655.237L195.437 653.467C199.983 646.638 203.894 639.408 207.121 631.867C209.776 625.493 212.077 618.942 214.733 612.922C217.388 606.903 220.398 599.467 223.761 592.562L315.284 418.699C318.66 411.527 323.923 405.407 330.508 400.994C343.962 391.788 357.416 382.227 371.755 373.198C403.797 352.66 436.016 332.83 468.057 312.116C476.746 306.751 485.083 300.838 493.018 294.411C496.252 291.825 499.326 289.046 502.223 286.089C505.091 283.501 506.968 279.996 507.534 276.175C508.725 270.857 508.484 265.318 506.836 260.124C505.187 254.93 502.191 250.265 498.152 246.607L497.267 248.378ZM416.543 292.64L387.333 316.542L360.602 336.903C353.517 341.871 345.413 345.197 336.881 346.64H335.465C333.694 346.64 332.632 345.755 332.809 343.808C332.899 342.393 332.899 340.973 332.809 339.558L342.015 303.086C342.183 301.666 342.602 300.287 343.254 299.014C344.049 295.775 345.922 292.903 348.565 290.87C351.106 288.778 354.302 287.65 357.593 287.683H375.296C387.51 287.683 399.371 287.683 410.701 287.683C412.962 287.297 415.287 287.737 417.251 288.922L414.772 291.755L416.543 292.64Z" fill="white"/>
<path d="M758.896 18.3862C757.149 18.2008 755.393 18.6398 753.939 19.6256C741.37 23.5206 728.624 27.2387 716.232 31.4879C707.381 34.6747 698.53 38.3928 690.21 42.2879C687.12 43.7125 684.397 45.8252 682.249 48.4643C680.101 51.1035 678.585 54.199 677.818 57.5141C677.019 60.8905 677.019 64.4066 677.818 67.783C678.67 71.1141 680.174 74.2432 682.243 76.9895C682.982 77.6105 683.636 78.3247 684.191 79.1141C686.669 82.478 686.669 83.5404 684.191 87.2584C682.911 88.8375 681.729 90.493 680.65 92.2158C635.685 153.003 591.429 213.908 547.88 274.931L544.163 279.534C543.459 280.535 542.554 281.379 541.508 282.013C540.443 282.525 539.31 282.883 538.144 283.075C534.184 283.564 530.441 285.16 527.345 287.678L334.387 413.206C328.638 416.62 323.974 421.592 320.933 427.547C296.68 473.58 272.605 519.613 248.352 565.468C248.352 566.531 247.113 567.593 246.759 568.655C246.582 569.532 246.582 570.435 246.759 571.311L250.476 568.301C268.179 554.845 285.882 540.328 303.584 526.164C311.446 519.947 320 514.659 329.076 510.406C345.547 502.274 363.845 498.553 382.184 499.606C395.494 500.104 408.72 501.942 421.661 505.095C432.676 507.423 443.212 511.614 452.817 517.488C462.731 523.685 472.29 530.059 481.85 536.609C490.292 542.354 498.228 548.811 505.571 555.908C519.111 569.118 530.999 583.921 540.976 599.993L544.34 604.773C544.891 603.385 545.364 601.966 545.756 600.524C546.818 592.734 548.234 584.944 549.12 577.331C552.306 557.147 555.139 536.964 558.148 516.78C561.157 496.596 563.636 479.6 566.291 461.186C568.062 448.793 569.655 436.577 571.425 424.36C573.195 412.144 575.851 397.449 577.798 383.993C578.933 376.911 579.407 369.739 579.214 362.57C578.631 356.375 576.826 350.358 573.903 344.865L572.31 342.386C570.999 340.391 570.32 338.046 570.363 335.659C570.273 333.265 570.956 330.906 572.31 328.931C573.23 327.4 574.235 325.923 575.32 324.504C577.975 319.901 580.807 315.475 583.286 311.049L668.612 166.931C682.066 143.383 696.76 119.481 710.922 96.1109C716.047 86.8765 721.97 78.1085 728.624 69.9075C732.406 65.1227 736.952 60.9951 742.078 57.6912C748.565 53.6206 753.348 47.3269 755.532 39.9862C757.63 33.6288 759.228 27.1172 760.312 20.5108L758.896 18.3862ZM524.159 432.15C524.226 432.679 524.226 433.215 524.159 433.744H523.097V430.203C524.07 411.448 524.07 392.656 523.097 373.901C523.004 373.74 522.955 373.556 522.955 373.37C522.955 373.184 523.004 373 523.097 372.839C523.097 369.829 520.972 368.59 518.14 369.121C513.403 369.675 508.827 371.18 504.686 373.547C486.983 384.17 468.219 394.616 451.578 405.239C430.866 417.632 410.685 430.911 391.035 445.429C390.286 445.903 389.575 446.436 388.911 447.023C384.485 450.563 380.591 448.97 376.519 445.606C375.954 445.138 375.526 444.527 375.28 443.836C375.099 443.079 375.099 442.291 375.28 441.534C375.121 440.835 375.121 440.109 375.28 439.409C375.526 438.718 375.954 438.107 376.519 437.639C377.391 436.615 378.404 435.721 379.529 434.983C409.473 413.579 440.951 394.406 473.706 377.619C486.064 370.883 499.048 365.369 512.475 361.154C514.388 360.629 516.342 360.273 518.317 360.091C519.482 359.819 520.693 359.819 521.858 360.091C523.048 360.379 524.184 360.857 525.221 361.508C526.133 362.243 526.964 363.074 527.699 363.986C528.42 364.986 528.904 366.136 529.116 367.35C529.984 369.806 530.52 372.366 530.709 374.963C532.126 394.377 529.659 413.879 523.451 432.327L524.159 432.15Z" fill="white"/>
<path d="M824.762 266.79L829.188 262.895C837.862 255.813 846.891 248.731 856.096 241.826C871.064 230.413 883.484 216.001 892.564 199.512C893.626 197.918 894.511 196.148 895.573 194.377C897.451 191.022 900.248 188.273 903.635 186.454C907.022 184.634 910.858 183.821 914.692 184.108H969.747C987.45 184.108 1003.38 184.108 1020.2 185.348H1024.8C1040.96 185.634 1057.1 186.816 1073.13 188.889L1100.04 191.367L1125.53 194.377C1150.84 197.387 1175.81 201.813 1200.59 207.125C1269.12 221.211 1335.65 243.688 1398.68 274.049C1443.44 296.018 1485.5 323.111 1524.02 354.784C1552.37 378.211 1578.18 404.56 1601.02 433.394C1622.27 460.305 1643.33 486.508 1662.45 514.128C1700.21 569.186 1731.12 628.64 1754.5 691.177C1772.91 739.711 1787.24 789.694 1797.34 840.607C1801.77 863.623 1805.66 886.817 1808.32 909.833C1812.01 940.26 1813.66 970.898 1813.28 1001.54V1033.24C1813.28 1039.08 1813.28 1044.74 1811.86 1050.94C1811.93 1051.53 1811.93 1052.12 1811.86 1052.71C1811.86 1052.71 1810.62 1051.83 1810.44 1051.3C1810.27 1050.76 1809.21 1048.11 1808.67 1046.34C1804.96 1032.88 1801.06 1019.43 1797.88 1005.97C1795.14 994.325 1793.31 982.487 1792.39 970.561C1791.15 957.105 1790.26 943.649 1788.67 930.194C1787.08 916.738 1785.66 906.469 1783.71 894.784C1780 872.83 1775.92 850.699 1770.26 828.922C1748.13 728.8 1707.88 633.572 1651.48 547.944C1628.52 512.755 1602.39 479.745 1573.41 449.328C1513.06 385.714 1438.59 337.193 1356.02 307.689C1311.93 291.745 1266.64 279.312 1220.59 270.508C1201.3 266.967 1182 264.134 1162.53 260.948C1154.21 259.708 1145.89 259.177 1137.39 258.292C1110.66 255.282 1082.87 254.574 1055.6 253.157C1032.59 252.095 1009.58 253.157 986.564 253.157H968.862C964.107 252.947 959.346 253.363 954.7 254.397H951.159C930.551 254.838 909.984 256.434 889.554 259.177C874.33 260.948 859.106 263.603 843.881 265.728L827.772 267.675H824.94L824.762 266.79Z" fill="white"/>
<path d="M342.012 849.637C331.57 849.132 321.198 847.65 311.032 845.21L303.597 843.617C296.33 841.885 289.589 838.423 283.947 833.525C279.338 829.932 275.889 825.06 274.031 819.518C272.174 813.977 271.99 808.01 273.503 802.364C275.978 791.937 282.301 782.831 291.205 776.869C292.447 775.832 294.013 775.264 295.631 775.264C297.249 775.264 298.815 775.832 300.057 776.869L302.889 779.171C310.579 784.861 319.878 787.961 329.443 788.023C338.958 787.985 348.208 784.881 355.82 779.171C358.654 777.219 361.265 774.963 363.609 772.443C368.022 767.79 372.16 762.884 376.001 757.748C383.407 747.565 393.357 739.506 404.856 734.378L444.51 716.673C456.222 711.507 467.179 704.776 477.083 696.666C482.223 692.201 487.072 687.411 491.599 682.325C493.9 679.817 495.864 677.02 497.441 674.004C498.723 671.995 499.4 669.659 499.388 667.276C499.366 664.953 498.691 662.683 497.441 660.725C495.696 658.027 493.804 655.427 491.776 652.935C481.875 641.644 470.641 631.596 458.318 623.014C436.567 608.23 413.158 596.048 388.57 586.718C384.675 584.948 380.604 583.532 376.532 581.584C372.236 579.851 368.235 577.462 364.671 574.502C360.253 571.176 357.125 566.421 355.82 561.046C354.383 555.66 354.949 549.935 357.413 544.935C360.423 538.03 364.14 531.479 367.504 524.574C368.442 522.557 369.99 520.884 371.929 519.794C373.876 518.726 376.087 518.234 378.302 518.377C388.66 518.617 398.924 520.408 408.751 523.689C414.947 525.813 420.789 528.292 426.453 530.948C446.647 540.646 465.508 552.904 482.571 567.42C488.413 572.378 494.255 577.158 500.273 582.292C508.197 589.923 515.59 598.087 522.402 606.725C531.969 619.038 540.496 632.126 547.894 645.853C552.581 653.974 556.041 662.745 558.161 671.879C560.073 680.116 559.265 688.75 555.86 696.489C553.547 701.972 550.763 707.245 547.54 712.246C541.046 722.16 533.312 731.204 524.526 739.158C510.138 751.891 492.987 761.104 474.428 766.069C462.744 769.433 451.06 772.443 439.022 776.869C427.643 781.704 416.586 787.263 405.918 793.512C400.853 796.091 396.389 799.711 392.819 804.135C389.233 808.59 386.692 813.794 385.383 819.361C384.31 823.258 382.888 827.05 381.135 830.692C378.979 835.525 375.628 839.729 371.398 842.909C367.091 846.13 362.034 848.201 356.705 848.928C353.165 848.928 346.969 849.106 342.012 849.637Z" fill="white"/>
<path d="M577.977 683.386C577.977 683.386 579.393 684.271 579.57 684.979C580.287 686.811 580.821 688.708 581.163 690.645C583.111 706.933 585.235 723.045 587.005 739.511C589.601 760.3 590.076 781.3 588.422 802.186C587.604 812.759 585.886 823.243 583.288 833.524C581.681 838.723 579.729 843.81 577.446 848.75C577.446 848.75 577.446 848.75 577.446 849.635C576.879 850.122 576.215 850.484 575.499 850.698C575.17 850.698 574.855 850.567 574.622 850.335C574.39 850.102 574.259 849.787 574.259 849.458V847.157C574.259 839.012 572.843 830.691 571.781 822.724C571.358 818.738 570.467 814.816 569.126 811.039C567.195 805.384 563.301 800.61 558.15 797.583C552.869 794.307 546.539 793.168 540.448 794.396C530.408 795.759 520.828 799.458 512.477 805.196C505.938 809.888 499.994 815.357 494.775 821.484C476.193 842.789 462.05 867.588 453.174 894.429C448.422 906.58 444.576 919.067 441.667 931.786C440.425 939.111 440.425 946.592 441.667 953.917C444.537 983.265 452.947 1011.8 466.451 1038.02C473.108 1050.41 480.745 1062.25 489.287 1073.43C491.002 1075.03 492.282 1077.04 493.004 1079.27C493.004 1080.33 491.588 1080.15 490.88 1079.27C490.331 1078.95 489.849 1078.53 489.464 1078.03C465.402 1054.85 443.48 1029.55 423.964 1002.43C409.431 982.033 399.909 958.498 396.171 933.734C394.932 925.235 393.87 916.029 392.631 908.061C392.631 902.219 391.037 896.376 389.975 890.357C389.975 890.357 389.09 888.763 388.205 887.524C387.461 890.245 386.987 893.032 386.789 895.845C385.705 907.624 385.705 919.477 386.789 931.255C387.851 940.816 388.559 950.199 389.621 959.406C390.683 968.612 392.454 981.537 393.87 992.691C393.87 998.711 395.817 1004.55 396.525 1010.4C398.306 1020.46 401.463 1030.23 405.907 1039.43C408.917 1046.51 412.457 1052.89 415.644 1060.15C417.237 1063.51 418.476 1067.05 419.893 1070.59C420.071 1071.71 420.071 1072.84 419.893 1073.96L417.237 1072.89C412.237 1068.96 407.721 1064.44 403.783 1059.44C393.634 1046.75 385.349 1032.68 379.177 1017.65C373.866 1004.2 369.086 990.743 365.014 977.288C359.119 959.488 354.621 941.256 351.56 922.757C351.294 920.937 350.819 919.155 350.144 917.445C348.06 921.633 346.912 926.225 346.781 930.901C346.073 941.71 346.429 952.562 347.843 963.301C349.967 978.527 352.269 994.107 355.632 1009.16C358.056 1020.54 361.985 1031.56 367.316 1041.91C367.316 1043.68 368.909 1045.45 369.44 1047.22H366.962L363.421 1044.21C358.358 1039.61 354.056 1034.23 350.675 1028.28C346.654 1021.56 343.218 1014.51 340.408 1007.21C336.336 995.347 332.088 983.484 328.724 971.799C323.108 952.028 319.082 931.839 316.686 911.425C315.27 900.271 313.146 889.294 311.375 878.317C311.021 875.97 311.021 873.583 311.375 871.235C311.202 870.598 311.202 869.925 311.375 869.288C311.526 868.688 311.832 868.139 312.261 867.694C312.653 867.245 313.135 866.883 313.677 866.632C314.255 866.465 314.869 866.465 315.447 866.632C317.378 866.276 319.358 866.276 321.289 866.632C328.016 866.632 334.743 868.225 341.47 868.757C347.897 869.111 354.339 869.111 360.766 868.757C369.883 868.394 378.507 864.525 384.841 857.956C389.888 852.496 393.852 846.128 396.525 839.189C396.525 837.065 398.118 834.763 398.827 832.461C400.462 826.305 403.622 820.661 408.016 816.05C412.41 811.439 417.895 808.011 423.964 806.081L439.188 801.124L490.349 785.543C495.306 783.95 500.086 782.002 504.688 780.055C520.798 773.292 535.233 763.082 546.977 750.144C558.72 737.206 567.489 721.852 572.666 705.163C574.474 699.042 575.661 692.755 576.207 686.396C576.049 685.816 576.049 685.205 576.207 684.625C576.207 684.625 576.207 684.625 577.269 683.386H577.977Z" fill="white"/>
<path d="M1820.16 745.885C1820.16 744.292 1818.75 743.053 1818.22 741.636C1803.7 707.997 1789.54 674.534 1774.67 640.364C1754.29 594.492 1730.07 550.427 1702.26 508.639C1681.27 476.958 1658.08 446.786 1632.87 418.344C1536.48 308.583 1410.08 229.435 1269.26 190.659C1237.26 181.632 1204.74 174.538 1171.89 169.413C1151.53 166.049 1130.82 163.57 1110.11 161.623C1092.41 160.029 1074.7 158.79 1057 158.082C1033.28 156.843 1009.74 156.843 986.192 158.082C967.073 158.082 947.777 159.321 928.658 161.092H924.941C924.508 159.769 924.508 158.342 924.941 157.02C927.065 150.469 928.835 143.564 930.96 137.544C933.084 131.524 934.854 130.285 941.05 130.285C946.963 130.236 952.874 130.532 958.753 131.17C978.226 132.056 997.876 132.764 1017.53 134.18C1037.18 135.597 1052.93 137.013 1070.63 138.784C1085.33 140.377 1100.02 142.502 1114.54 144.272C1129.05 146.043 1141.44 147.636 1155.61 149.761C1237.57 161.463 1317.55 184.276 1393.35 217.57C1405.57 223.059 1417.6 229.079 1428.76 235.275C1439.91 241.472 1449.12 246.252 1459.21 252.095C1476.91 262.364 1494.61 273.341 1512.31 285.38C1549.49 312.09 1584.04 342.265 1615.52 375.498C1644.88 406.473 1671.86 439.616 1696.24 474.646C1727.49 519.408 1754.8 566.799 1777.85 616.285C1789.45 641.306 1799.79 666.892 1808.83 692.948C1812.93 705.203 1816.36 717.675 1819.1 730.305L1821.58 739.689C1822.11 742.318 1822.11 745.026 1821.58 747.656L1820.16 745.885Z" fill="white"/>
<path d="M765.632 271.566L768.818 269.264C788.291 253.684 807.764 238.458 827.414 223.586C833.565 219.123 839.474 214.336 845.117 209.245C859.083 195.984 869.493 179.424 875.388 161.087C876.759 156.668 877.882 152.176 878.752 147.632C880.345 139.842 881.761 131.874 883.177 124.084C883.291 123.341 883.222 122.582 882.975 121.872C882.728 121.162 882.311 120.524 881.761 120.012C878.332 121.066 874.964 122.307 871.671 123.73C858.216 129.219 846.002 134.884 833.079 140.373L822.103 144.976C815.309 147.959 808.074 149.813 800.683 150.464C785.012 152.2 769.578 155.643 754.656 160.733C744.92 163.92 745.805 162.15 736.953 172.242C718.012 195.966 698.893 220.045 679.597 243.061C655.799 272.854 628.786 299.929 599.05 323.796C597.052 325.959 594.469 327.497 591.615 328.222C591.438 327.405 591.438 326.56 591.615 325.743C591.615 324.327 593.208 323.087 594.093 321.671L686.678 177.199C689.51 172.596 692.697 168.346 695.883 163.743C698.575 160.515 700.456 156.691 701.371 152.589C701.871 148.982 703.408 145.599 705.797 142.851C708.35 140.217 711.607 138.374 715.179 137.54L738.724 132.405C766.14 125.537 793.1 116.963 819.448 106.733C822.988 105.494 826.352 103.9 829.892 102.307L862.996 87.4349C867.422 85.4874 871.494 83.0087 876.273 81.0612L907.607 67.7825C908.486 67.2746 909.443 66.9156 910.439 66.7202H912.386C913.023 66.5381 913.697 66.5381 914.334 66.7202C914.92 66.9813 915.413 67.4132 915.75 67.9595C915.908 68.5391 915.908 69.1504 915.75 69.73C918.6 76.1631 920.565 82.9528 921.592 89.9136C924.089 106.367 922.632 123.178 917.343 138.956C915.896 143.711 914.182 148.381 912.209 152.943C906.589 167.02 899.655 180.536 891.497 193.31C875.393 218.512 853.632 239.609 827.945 254.923L815.199 262.891C802.19 270.453 787.406 274.424 772.359 274.399C769.601 274.361 766.93 273.429 764.747 271.743L765.632 271.566Z" fill="white"/>
<path d="M581.528 473.935L583.475 475.529C596.607 495.875 606.296 518.247 612.153 541.745C617.582 561.988 621.254 582.661 623.129 603.535C624.545 623.871 624.545 644.281 623.129 664.617C622.927 676.468 621.981 688.295 620.297 700.027C618.47 716.567 615.213 732.916 610.56 748.893C609.144 753.496 607.02 758.099 605.249 762.349C605.206 762.745 605.083 763.128 604.89 763.477C604.697 763.826 604.436 764.133 604.123 764.38C603.81 764.627 603.451 764.809 603.067 764.917C602.683 765.024 602.282 765.054 601.886 765.004C602.119 764.134 602.119 763.218 601.886 762.349V748.893C601.531 731.039 599.516 713.258 595.867 695.778C592.153 680.52 586.186 665.9 578.164 652.401C574.079 643.996 569.406 635.891 564.179 628.145C562.115 625.461 560.61 622.391 559.754 619.116C559.046 615.789 559.046 612.351 559.754 609.024C561.701 596.984 563.294 584.945 565.242 573.614C567.189 562.283 568.782 553.607 570.375 543.516C573.208 525.811 575.686 508.991 578.341 491.463C578.341 487.037 579.935 482.434 580.82 478.007C581.008 476.976 581.305 475.967 581.705 474.997L581.528 473.935Z" fill="white"/>
<path d="M224.093 442.423C223.185 447.733 222.003 452.993 220.552 458.181C217.72 468.273 214.887 478.187 211.524 487.925C208.16 497.663 204.974 509.348 202.318 520.148C202.318 523.866 200.194 527.407 199.132 531.125C196.789 539.308 191.32 546.241 183.908 550.423C181.891 551.679 179.941 553.038 178.066 554.496C175.288 556.528 173.042 559.2 171.516 562.286C170.067 565.378 169.456 568.798 169.745 572.201C169.562 575.191 169.922 578.191 170.808 581.053C172.259 588.984 171.143 597.171 167.621 604.424C166.822 605.821 165.872 607.127 164.789 608.319C164.266 608.944 163.597 609.43 162.841 609.735C162.096 609.991 161.286 609.991 160.54 609.735C159.792 609.978 158.987 609.978 158.239 609.735C157.672 609.227 157.194 608.629 156.823 607.965C153.245 601.454 151.017 594.288 150.273 586.896C150.275 582.389 150.63 577.891 151.335 573.44C153.319 561.286 156.705 549.404 161.425 538.03C166.382 525.814 171.516 513.774 176.473 501.558C178.303 496.92 179.899 492.193 181.252 487.394C181.338 486.392 181.338 485.386 181.252 484.384C181.425 483.686 181.425 482.957 181.252 482.259C181.072 481.581 180.704 480.967 180.19 480.489H176.118C174.587 480.765 173.099 481.241 171.693 481.905C167.09 484.03 162.487 485.978 158.239 488.456C149.565 493.237 140.536 498.548 132.57 503.859L127.967 506.692C125.689 508.057 123.894 510.1 122.834 512.535C122.035 515.01 122.035 517.673 122.834 520.148C124.427 528.823 126.197 537.853 127.79 546.174C127.79 548.83 128.852 551.663 129.029 554.319C129.206 556.974 129.029 559.453 126.905 560.692C124.781 561.932 122.302 560.692 120.709 558.391C107.933 545.796 99.1315 529.729 95.3945 512.181C94.3124 507.031 95.1966 501.662 97.8729 497.132C100.769 491.705 104.966 487.082 110.088 483.676C135.224 465.609 162.3 450.406 190.812 438.351C195.237 436.404 200.194 434.987 204.089 433.04C207.167 432.022 210.412 431.602 213.648 431.8C214.821 431.615 216.016 431.615 217.189 431.8C218.368 432.234 219.451 432.896 220.375 433.748C221.274 434.533 221.998 435.498 222.499 436.581C222.682 437.754 222.682 438.949 222.499 440.122C222.678 441.117 222.678 442.136 222.499 443.132L224.093 442.423Z" fill="white"/>
<path d="M357.036 517.662C357.211 518.657 357.211 519.676 357.036 520.671C356.87 521.676 356.509 522.638 355.974 523.504L348.539 539.085C347.654 541.209 346.591 543.157 345.883 545.281C343.752 549.487 343.067 554.279 343.936 558.914C344.811 563.615 347.095 567.937 350.486 571.308C355.835 577.149 361.767 582.429 368.189 587.065L383.944 598.219C385.26 599.124 386.503 600.13 387.661 601.229C387.744 601.578 387.744 601.942 387.661 602.291C387.759 602.699 387.759 603.123 387.661 603.531C387.162 604.294 386.41 604.858 385.537 605.124C384.565 605.476 383.5 605.476 382.528 605.124L361.284 601.583L338.625 597.157C334.661 596.61 330.752 595.721 326.941 594.501C324.352 594.231 321.742 594.231 319.152 594.501C315.178 594.201 311.198 594.997 307.646 596.803C304.074 598.587 300.979 601.197 298.617 604.416C297.035 606.549 295.615 608.798 294.369 611.144L280.915 634.514L278.79 638.055H277.374C277.374 636.993 276.135 635.931 275.781 634.868C273.865 629.146 272.733 623.19 272.417 617.163C272.587 614.522 272.226 611.873 271.355 609.373C270.323 604.106 267.511 599.355 263.389 595.917L259.317 592.376C258.299 591.449 257.511 590.298 257.016 589.013C256.763 587.726 256.763 586.403 257.016 585.117C256.961 583.735 257.201 582.357 257.72 581.075C258.238 579.793 259.025 578.636 260.026 577.681C261.512 575.811 263.238 574.144 265.159 572.724C269.231 569.714 273.479 566.527 277.905 563.871L344.998 523.504C348.769 521.151 352.893 519.418 357.213 518.37L357.036 517.662Z" fill="white"/>
<path d="M442.566 218.095C476.152 204.607 510.948 194.351 546.48 187.465C563.966 183.936 581.75 182.098 599.588 181.977C600.65 183.57 599.588 184.633 599.588 185.695L560.288 234.561L544.533 254.213C541.452 257.916 537.946 261.244 534.088 264.128L531.079 266.252C530.03 266.488 528.941 266.488 527.892 266.252C526.849 266.539 525.749 266.539 524.706 266.252C523.675 265.748 522.768 265.023 522.05 264.128C521.44 263.234 521.073 262.197 520.988 261.118C520.811 259.529 520.811 257.926 520.988 256.338C521.028 253.009 520.237 249.723 518.687 246.777C517.228 243.79 514.958 241.275 512.137 239.518C509.772 237.715 507.22 236.171 504.525 234.915C492.91 229.458 480.659 225.473 468.057 223.052C461.685 221.636 454.78 220.574 448.762 219.334L442.566 218.095Z" fill="white"/>
<path d="M369.428 734.375H365.533C364.849 734.634 364.094 734.634 363.409 734.375C362.734 733.901 362.236 733.216 361.993 732.428C361.824 731.67 361.824 730.884 361.993 730.126C362.162 729.287 362.526 728.498 363.055 727.825L365.533 725.346C368.508 723.057 371.643 720.987 374.916 719.149C398.191 707.743 418.724 691.435 435.105 671.346C438.468 667.274 441.477 663.202 444.664 659.129C446.067 657.197 447.669 655.417 449.444 653.818C451.253 651.934 453.419 650.429 455.817 649.392C458.301 648.452 460.952 648.03 463.606 648.152C466.184 648.194 468.721 648.798 471.041 649.923C473.391 651.108 475.494 652.73 477.237 654.703C478.565 656.149 479.984 657.51 481.485 658.775C482.524 659.345 483.43 660.129 484.141 661.077C484.848 662.106 485.386 663.242 485.734 664.441C486 665.606 486 666.816 485.734 667.982C485.588 669.184 485.164 670.336 484.495 671.346C483.406 673.467 482.037 675.433 480.423 677.188C474.417 683.864 467.643 689.807 460.242 694.893C434.879 712.127 406.904 725.16 377.394 733.49C374.895 734.19 372.352 734.723 369.782 735.084L369.428 734.375Z" fill="white"/>
<path d="M362.171 760.927L348.717 752.075C344.708 749.11 340.921 745.856 337.388 742.337C333.847 738.619 330.484 734.547 327.297 730.475C324.26 726.465 321.481 722.266 318.977 717.904C316.498 713.832 314.374 709.406 311.542 704.449C309.925 707.786 308.906 711.382 308.532 715.072C307.117 726.003 307.117 737.071 308.532 748.003L310.48 767.655C310.656 769.007 310.656 770.376 310.48 771.727C309.24 771.727 308.178 771.727 307.647 770.842C305.532 768.147 304.077 764.994 303.398 761.635C301.104 752.325 299.507 742.856 298.619 733.308C297.202 721.547 297.202 709.659 298.619 697.898C298.619 692.232 299.858 686.567 300.92 680.193C302.387 674.527 304.779 669.143 308.001 664.258C309.24 662.842 310.48 661.426 312.604 661.957C314.728 662.488 315.082 664.258 315.259 666.206C314.907 670.33 314.907 674.476 315.259 678.599C317.479 700.411 328.234 720.459 345.177 734.37C346.505 735.598 347.925 736.723 349.425 737.734C354.137 741.112 357.766 745.787 359.87 751.19C361.712 754.083 362.523 757.515 362.171 760.927Z" fill="white"/>
<path d="M275.253 731.546C271.88 732.778 268.181 732.778 264.808 731.546C255.084 728.763 245.96 724.201 237.9 718.09C226.352 708.813 216.422 697.685 208.514 685.159C204.186 678.658 201.345 671.283 200.194 663.559C199.793 661.14 199.969 658.661 200.707 656.322C201.446 653.984 202.725 651.853 204.442 650.103L206.389 648.687H207.452C207.535 648.976 207.535 649.283 207.452 649.572C208.15 651.892 208.683 654.258 209.045 656.654C209.045 660.195 210.107 664.09 211.169 667.808C213.345 675.979 217.546 683.469 223.384 689.585C229.879 696.227 237.059 702.161 244.804 707.29H248.876C248.938 706.998 248.938 706.697 248.876 706.405C249.011 706.003 249.011 705.568 248.876 705.165C249.052 703.932 249.052 702.68 248.876 701.447C247.814 688.169 246.751 676.129 245.512 663.382C245.512 658.07 245.512 652.582 244.273 647.27C242.821 637.354 240.752 627.538 238.077 617.88C236.311 611.186 235.771 604.228 236.484 597.342C236.721 594.694 237.255 592.081 238.077 589.552C238.428 588.409 238.967 587.332 239.67 586.365C239.959 586.282 240.266 586.282 240.555 586.365L241.671 580.744C252.656 604.9 256.367 620.133 259.317 649.572C262.158 671.003 265.72 689.253 274.769 712.567C276.393 718.5 276.694 722.596 275.253 731.546Z" fill="white"/>
<path d="M841.676 588.743C843.845 588.532 846.032 588.787 848.105 589.493C850.178 590.198 852.094 591.339 853.739 592.846C854.6 593.725 855.239 594.819 855.596 596.026C855.953 597.234 856.018 598.517 855.784 599.757C855.706 601.649 855.217 603.497 854.353 605.156C853.766 606.164 853.003 607.043 852.104 607.748L848.423 610.124C846.991 610.783 845.476 611.22 843.925 611.42L830.84 612.715H786.064C785.042 619.842 783.815 629.345 781.975 640.791C780.135 652.238 778.908 666.708 777.068 683.985C771.139 733.01 767.458 774.26 765.823 807.304C765.525 812.698 765.525 818.107 765.823 823.501C765.823 829.332 767.049 836.243 768.072 844.018C768.205 844.756 768.163 845.517 767.948 846.233C767.734 846.95 767.355 847.599 766.845 848.122C765.953 848.981 764.781 849.445 763.574 849.418C759.706 848.582 755.983 847.125 752.533 845.098C746.164 835.385 743.266 823.599 744.355 811.839C744.355 787.866 746.195 753.743 750.079 709.685C753.964 665.628 755.6 638.632 755.6 626.969C755.706 625.243 755.706 623.512 755.6 621.786V616.819H738.63C732.744 617.063 726.874 617.64 721.047 618.547C715.344 619.328 709.728 620.702 704.281 622.65C699.519 624.035 694.973 626.145 690.787 628.913C688.742 630.425 687.72 631.721 687.72 632.585C687.599 633.226 687.599 633.887 687.72 634.528C688.975 635.999 690.609 637.05 692.423 637.552C695.328 638.794 698.341 639.734 701.419 640.359C706.038 640.916 710.702 640.916 715.322 640.359L725.136 639.064L736.381 637.336C739.44 637.021 742.522 637.021 745.581 637.336C748.239 637.336 749.671 637.336 749.671 639.928C749.936 640.769 749.936 641.678 749.671 642.519C747.594 646.556 744.738 650.088 741.288 652.886C738.358 655.41 735.038 657.383 731.474 658.717L724.318 660.876C720.065 661.714 715.76 662.22 711.437 662.388C704.58 662.762 697.705 662.181 690.991 660.661C686.228 659.363 681.727 657.168 677.702 654.181C674.196 651.096 671.341 647.271 669.319 642.951C666.995 638.739 665.663 633.998 665.434 629.129C665.203 627.121 665.203 625.09 665.434 623.082C666.137 620.293 667.167 617.609 668.501 615.091C670.501 612.329 672.838 609.86 675.452 607.748C679.28 605.368 683.521 603.826 687.924 603.213C692.627 601.917 699.578 600.621 708.37 599.109C717.162 597.598 728.816 596.734 739.857 595.438H833.907L841.676 588.743Z" fill="white"/>
<path d="M902.78 723.719C906.051 723.719 907.891 726.742 907.891 733.221C907.95 733.94 907.95 734.662 907.891 735.381C907.667 737.504 907.257 739.601 906.664 741.644C906.664 744.884 904.824 749.851 903.189 756.33C901.553 762.809 899.508 771.232 896.646 782.462C891.535 801.683 888.263 813.346 886.832 817.017C882.334 829.328 875.996 835.375 868.022 835.375C852.892 835.375 844.1 820.689 841.647 792.181V763.457C839.739 771.232 837.49 781.166 834.9 793.261C832.037 805.139 828.766 820.473 824.677 839.046V840.99L823.041 842.07C820.904 843.506 818.418 844.256 815.885 844.229C809.752 844.229 805.253 839.262 802.391 829.328C798.789 813.571 797.275 797.363 797.893 781.167C797.893 775.335 797.893 765.617 799.733 751.579C801.573 737.541 803.005 718.535 805.867 694.995C808.729 671.454 810.16 653.313 811.387 638.627C812.614 623.941 813.636 613.142 813.636 606.663V595.649C814.744 593.588 816.199 591.758 817.93 590.25C820.71 588.317 824.015 587.406 827.335 587.658C834.695 587.658 838.376 591.33 838.376 598.672C838.274 603.372 837.516 608.029 836.127 612.495C834.332 617.672 833.031 623.026 832.242 628.476C827.131 662.815 823.041 693.267 820.383 718.535C817.725 743.804 816.703 765.401 816.703 783.326C816.816 783.823 816.816 784.341 816.703 784.838V787.645C816.703 787.645 816.703 789.589 816.703 790.885L820.179 776.199C821.61 771.016 823.246 764.969 824.881 758.49C828.562 743.372 831.22 731.494 833.469 722.855C835.718 714.216 836.74 708.169 837.149 705.577C837.458 701.504 839.124 697.678 841.851 694.779C842.714 693.419 843.83 692.258 845.13 691.367C846.431 690.476 847.889 689.874 849.416 689.596C851.43 689.666 853.396 690.26 855.141 691.323C859.364 693.743 863.28 696.718 866.795 700.178L868.635 701.906V704.497C863.344 732.247 860.334 760.428 859.639 788.725C859.436 794.679 859.986 800.635 861.275 806.435C862.502 810.538 863.933 812.698 865.977 812.698C868.022 812.698 865.977 812.698 868.022 810.97C870.196 808.352 871.925 805.356 873.133 802.115C874.769 798.228 876.813 793.693 879.063 788.077C881.604 781.542 883.721 774.831 885.401 767.992C885.401 764.105 887.854 759.354 889.49 753.954C891.126 748.555 892.761 742.292 894.397 735.381C895.021 732.963 895.772 730.584 896.646 728.254C897.106 726.926 897.941 725.779 899.038 724.968C900.135 724.157 901.441 723.721 902.78 723.719Z" fill="white"/>
<path d="M992.551 720.691C993.585 720.501 994.646 720.577 995.646 720.912C996.646 721.246 997.555 721.83 998.296 722.613C999.038 723.397 999.59 724.357 999.907 725.413C1000.22 726.469 1000.3 727.59 1000.12 728.682C1000.02 734.942 999.268 741.171 997.867 747.255C996.303 754.7 993.972 761.942 990.916 768.852C984.986 783.322 976.808 790.449 966.585 790.449H963.927L957.998 788.073C957.998 790.449 957.998 792.609 956.362 795.2C954.727 797.792 956.362 799.736 954.931 802.543C953.091 808.374 951.251 813.126 949.82 816.797C948.696 819.935 947.329 822.969 945.731 825.868C943.814 830.27 940.699 833.97 936.784 836.496C932.869 839.022 928.33 840.26 923.747 840.052C919.164 839.843 914.743 838.198 911.048 835.326C907.353 832.454 904.551 828.485 902.999 823.924C897.928 810.184 895.698 795.456 896.456 780.73C895.577 765.127 897.307 749.482 901.568 734.513V732.785C901.491 731.707 901.491 730.624 901.568 729.546V726.09C901.684 723.573 902.542 721.156 904.021 719.179C904.021 719.179 904.021 716.803 904.021 714.86L906.27 705.141C906.652 702.286 907.629 699.557 909.133 697.15C910.353 695.368 911.797 693.769 913.426 692.399C914.743 691.355 916.292 690.685 917.924 690.455H921.809C929.324 690.949 936.491 693.977 942.255 699.094C948.767 703.679 953.824 710.225 956.771 717.883C956.839 719.178 956.839 720.476 956.771 721.771C956.982 724.574 956.982 727.39 956.771 730.194C956.771 733.649 956.771 738.616 956.771 744.88C956.771 751.143 956.771 758.917 956.771 768.636C957.818 769.507 959.119 769.966 960.452 769.932C962.654 769.819 964.811 769.231 966.79 768.204C970.101 766.053 972.624 762.779 973.946 758.917C973.946 757.622 975.172 755.03 976.195 751.143C977.217 747.255 979.057 740.56 980.897 731.489C982.737 722.419 987.849 720.691 992.551 720.691ZM932.85 807.079C935.375 801.696 937.363 796.051 938.779 790.233C939.604 787.273 940.152 784.235 940.415 781.162C940.415 778.139 940.415 774.467 940.415 770.148C940.415 765.828 940.415 761.293 938.575 756.11C936.735 750.927 936.53 744.016 935.917 741.424C935.303 738.832 935.917 736.889 935.917 735.809V732.785C935.751 731.206 935.751 729.613 935.917 728.034C935.988 726.595 935.988 725.153 935.917 723.715V720.691C936.046 719.618 935.967 718.53 935.686 717.49C935.405 716.451 934.927 715.482 934.281 714.644C933.731 714.114 933.085 713.706 932.383 713.446C931.68 713.187 930.935 713.08 930.192 713.132L928.965 714.644L927.125 719.395C926.089 722.221 925.201 725.105 924.467 728.034C924.467 731.921 922.831 736.673 921.605 742.72C920.378 748.767 918.742 760.429 917.924 767.34C917.165 773.355 916.756 779.414 916.698 785.482C916.698 788.505 916.698 791.961 916.698 795.848C916.875 799.556 917.354 803.241 918.129 806.863C918.834 809.857 919.863 812.756 921.196 815.501C921.676 816.483 922.373 817.329 923.226 817.968C924.08 818.607 925.067 819.02 926.103 819.173C926.867 818.385 927.552 817.517 928.147 816.581C929.705 813.585 931.071 810.483 932.237 807.295L932.85 807.079Z" fill="white"/>
<path d="M1135.69 718.319C1137.43 718.342 1139.1 719.033 1140.39 720.263C1141.23 721.212 1141.86 722.339 1142.25 723.569C1142.64 724.798 1142.77 726.101 1142.64 727.39C1142.7 728.325 1142.7 729.262 1142.64 730.197C1142.79 732.138 1142.79 734.088 1142.64 736.029C1142.64 738.404 1141.62 741.428 1140.8 745.315C1139.98 749.203 1138.76 753.738 1137.33 759.353C1135.9 764.968 1132.83 775.551 1130.37 783.11C1127.92 790.669 1125.67 797.796 1123.22 804.707C1116.06 826.304 1107.48 835.374 1097.46 835.374C1087.44 835.374 1078.65 823.928 1077.01 800.819V792.828L1073.33 805.139C1072.71 807.557 1071.96 809.936 1071.08 812.266C1065.36 828.031 1058.61 835.806 1050.64 835.806C1048.74 836.137 1046.81 836.137 1044.91 835.806C1042.84 834.939 1041.01 833.527 1039.6 831.703C1037.9 829.281 1036.59 826.582 1035.71 823.712C1034.62 819.345 1034.14 814.835 1034.28 810.322C1034.28 807.514 1034.28 798.012 1036.12 782.03C1036.12 777.495 1036.12 773.391 1036.12 769.288C1036.12 765.184 1036.12 761.513 1036.12 758.057C1035.31 760.885 1034.69 763.772 1034.28 766.696C1029.51 791.173 1026.24 806.722 1024.47 813.345C1018.95 832.351 1011.59 841.853 1002.79 841.853C1001.32 841.913 999.85 841.613 998.503 840.976C997.156 840.339 995.965 839.383 995.024 838.182C993.042 835.218 991.523 831.936 990.526 828.463C989.498 824.14 988.814 819.733 988.482 815.289C988.482 810.754 988.482 806.218 988.482 801.683V791.101C988.482 786.997 988.482 782.246 988.482 776.631C988.482 771.016 988.482 768.208 988.482 764.968V756.762L985.824 749.419C985.824 749.419 985.824 749.419 985.824 747.907C984.224 738.864 985.748 729.516 990.117 721.559C992.143 719.478 994.857 718.316 997.682 718.319H1001.77C1003.45 718.791 1004.99 719.679 1006.27 720.911C1007.7 722.58 1008.75 724.575 1009.34 726.742C1010.5 729.754 1011.06 732.991 1010.97 736.245C1011.06 745.107 1010.17 753.95 1008.31 762.593C1006.79 771.061 1006.1 779.674 1006.27 788.293V795.636C1006.27 798.012 1006.27 800.171 1006.27 802.331L1007.5 798.012L1008.72 793.476C1011.38 778.79 1013.63 766.696 1015.67 756.977C1017.22 749.185 1019.34 741.531 1022.01 734.085C1022.01 732.789 1022.01 731.277 1023.85 729.334C1024.66 727.094 1025.76 724.985 1027.12 723.07C1028.43 720.842 1030.09 718.869 1032.03 717.239C1034.13 715.69 1036.63 714.861 1039.19 714.864C1041.2 714.959 1043.16 715.551 1044.91 716.591C1047.63 718.25 1049.72 720.842 1050.84 723.934C1053.38 730.274 1054.5 737.148 1054.11 744.019C1054.11 754.386 1052.07 763.673 1051.45 771.879C1050.84 780.086 1051.45 786.781 1051.45 793.476V799.523C1051.55 800.745 1051.55 801.973 1051.45 803.195C1053.48 799.759 1055.06 796.055 1056.16 792.18C1059.24 783.662 1061.77 774.931 1063.72 766.048C1065.97 756.978 1067.81 749.635 1069.04 744.451C1070.26 739.268 1071.29 734.085 1071.9 730.845C1072.39 728.641 1072.73 726.404 1072.92 724.15V719.831C1073.63 717.244 1075.2 715.013 1077.34 713.546C1079.48 712.079 1082.05 711.474 1084.58 711.84C1090.17 712.573 1095.46 714.886 1099.91 718.535C1100.73 718.996 1101.36 719.749 1101.7 720.66C1102.04 721.57 1102.05 722.578 1101.75 723.502C1096.87 746.05 1094.13 769.057 1093.57 792.18C1093.57 797.364 1093.57 801.467 1093.57 804.707C1093.86 806.89 1094.27 809.053 1094.8 811.186C1095.14 812.541 1095.77 813.796 1096.64 814.857H1097.87C1099.12 813.978 1100.23 812.883 1101.14 811.618C1103.06 808.779 1104.71 805.739 1106.04 802.547C1108.5 796.935 1110.62 791.164 1112.38 785.269C1112.5 784.483 1112.5 783.681 1112.38 782.894C1113.22 780.423 1113.9 777.898 1114.43 775.335C1115.45 771.663 1116.68 766.912 1118.11 760.649C1119.54 754.386 1121.99 746.395 1124.45 736.676C1124.54 735.455 1124.54 734.227 1124.45 733.005C1124.45 731.493 1125.47 730.197 1125.88 728.901V725.878C1125.93 724.647 1126.24 723.443 1126.79 722.357C1127.34 721.271 1128.12 720.329 1129.06 719.603C1130 718.877 1131.09 718.385 1132.24 718.162C1133.39 717.94 1134.57 717.994 1135.69 718.319Z" fill="white"/>
<path d="M1156.14 719.618C1156.24 725.224 1156.92 730.801 1158.18 736.248C1159.61 742.943 1161.66 750.934 1164.32 760.437C1166.93 768.564 1169.05 776.86 1170.65 785.273C1171.73 790.675 1172.35 796.168 1172.49 801.687C1172.94 811.546 1170.59 821.32 1165.75 829.763C1163.82 833.387 1161.03 836.424 1157.67 838.58C1154.3 840.736 1150.46 841.939 1146.53 842.073C1142.58 841.84 1138.73 840.739 1135.21 838.843C1131.69 836.946 1128.58 834.295 1126.08 831.059C1122.18 827.248 1119.83 821.98 1119.54 816.373C1119.54 809.462 1121.58 805.574 1125.88 804.494C1127.36 804.664 1128.78 805.262 1129.97 806.222C1131.81 806.222 1132.62 809.678 1132.83 814.213C1133.03 818.748 1138.55 823.932 1141.01 823.932H1144.48C1146.24 822.783 1147.66 821.137 1148.57 819.18C1151.07 813.661 1152.26 807.584 1152.05 801.471C1151.49 789.201 1149.35 777.069 1145.71 765.404L1144.48 761.732C1144.6 760.223 1144.6 758.706 1144.48 757.197C1144.48 760.005 1143.05 762.812 1142.44 765.62C1141.83 768.428 1141.01 771.019 1140.19 773.611C1139.58 774.874 1139.03 776.172 1138.55 777.498C1137.95 779.396 1137.12 781.209 1136.1 782.897C1135.04 784.488 1133.81 785.939 1132.42 787.217C1130.78 788.363 1128.86 788.965 1126.9 788.945C1125.26 788.927 1123.64 788.482 1122.2 787.649C1121.71 787.463 1121.26 787.169 1120.89 786.788C1120.51 786.406 1120.22 785.945 1120.03 785.435C1119.83 784.924 1119.74 784.377 1119.77 783.828C1119.79 783.279 1119.92 782.741 1120.15 782.25L1124.45 763.46C1125.88 757.413 1127.31 751.15 1128.94 745.103C1130.57 738.874 1131.73 732.519 1132.42 726.098C1132.42 719.187 1132.42 712.06 1132.42 704.501C1132.31 702.615 1132.56 700.724 1133.16 698.943C1133.75 697.162 1134.69 695.526 1135.9 694.134C1137.16 692.746 1138.69 691.66 1140.38 690.952C1142.07 690.244 1143.89 689.93 1145.71 690.031C1148.31 689.908 1150.9 690.426 1153.27 691.543C1154.98 692.145 1156.48 693.273 1157.57 694.782C1158.52 695.778 1159.17 697.059 1159.41 698.453C1159.58 699.453 1159.58 700.477 1159.41 701.477C1159.49 702.267 1159.49 703.063 1159.41 703.853C1159.41 704.933 1159.41 707.092 1157.77 710.548C1156.95 713.508 1156.4 716.546 1156.14 719.618Z" fill="white"/>
<path d="M1289.63 720.69C1290.66 720.548 1291.7 720.658 1292.68 721.009C1293.66 721.361 1294.55 721.945 1295.28 722.717C1296.01 723.49 1296.56 724.429 1296.89 725.463C1297.23 726.497 1297.33 727.598 1297.2 728.681C1297.1 734.941 1296.35 741.171 1294.95 747.254C1293.38 754.7 1291.05 761.942 1288 768.851C1282.07 783.321 1273.89 790.448 1263.46 790.448H1261.01L1255.08 788.073C1255.08 790.448 1255.08 792.608 1253.44 795.199C1251.81 797.791 1253.44 799.735 1252.01 802.542C1249.97 808.374 1248.33 813.125 1246.9 816.796C1245.78 819.934 1244.41 822.968 1242.81 825.867C1240.91 829.929 1238.01 833.375 1234.41 835.845C1230.81 838.314 1226.65 839.717 1222.36 839.905C1217.55 839.943 1212.85 838.435 1208.87 835.58C1204.89 832.726 1201.82 828.661 1200.08 823.923C1195.01 810.183 1192.78 795.456 1193.54 780.73C1192.72 765.143 1194.38 749.522 1198.44 734.512V732.784C1198.35 731.707 1198.35 730.623 1198.44 729.545V726.089C1198.56 723.572 1199.42 721.156 1200.9 719.178V714.859C1200.9 712.915 1200.9 709.676 1202.94 705.14C1203.5 702.338 1204.47 699.643 1205.8 697.149C1207.14 695.406 1208.65 693.814 1210.3 692.398C1211.7 690.943 1213.48 689.965 1215.41 689.591H1219.5C1227.02 690.084 1234.18 693.112 1239.95 698.229C1246.46 702.754 1251.47 709.326 1254.26 717.019C1254.33 718.313 1254.33 719.611 1254.26 720.906C1254.84 723.676 1255.18 726.495 1255.28 729.329C1255.28 732.784 1255.28 737.752 1255.28 744.015C1255.28 750.278 1255.28 758.053 1255.28 767.771C1256.33 768.643 1257.63 769.101 1258.96 769.067C1261.16 768.954 1263.32 768.366 1265.3 767.339C1268.61 765.189 1271.14 761.915 1272.46 758.053C1272.46 756.757 1273.68 754.165 1274.71 750.278C1275.73 746.39 1277.57 739.695 1279.41 730.625C1281.25 721.554 1285.34 720.69 1289.63 720.69ZM1229.93 807.078C1232.37 801.657 1234.35 796.02 1235.86 790.232C1236.68 787.272 1237.23 784.234 1237.49 781.161C1237.49 778.138 1237.49 774.466 1237.49 770.147C1237.49 765.828 1237.49 761.292 1235.65 756.109C1233.81 750.926 1233.41 744.015 1233 741.423C1232.59 738.832 1233 736.888 1233 735.808V732.784C1232.83 731.205 1232.83 729.612 1233 728.033C1233.08 726.595 1233.08 725.152 1233 723.714V720.69C1233 717.667 1233 715.507 1231.57 714.643C1231.02 714.113 1230.37 713.705 1229.67 713.446C1228.96 713.186 1228.22 713.079 1227.48 713.131L1226.25 714.643C1226.25 714.643 1225.02 717.235 1224.21 719.394L1221.75 728.033C1221.75 731.92 1219.91 736.672 1218.89 742.719C1217.87 748.766 1216.03 760.428 1215.21 767.339C1214.45 773.354 1214.04 779.413 1213.98 785.481C1213.98 788.504 1213.98 791.96 1213.98 795.847C1214.19 799.541 1214.6 803.218 1215.21 806.862C1215.98 809.866 1217.07 812.765 1218.48 815.501C1218.96 816.482 1219.66 817.328 1220.51 817.967C1221.36 818.606 1222.35 819.019 1223.39 819.172L1225.23 816.58C1227.1 813.67 1228.68 810.557 1229.93 807.294V807.078Z" fill="white"/>
<path d="M1338.29 654.182C1336.86 660.445 1334.82 667.14 1332.57 674.267C1330.32 681.394 1327.66 688.737 1324.8 695.864C1321.93 702.991 1319.69 709.686 1317.03 715.949H1300.88C1300.88 710.982 1303.12 705.798 1304.35 700.183C1305.58 694.568 1306.8 688.953 1307.83 683.337C1308.85 677.722 1309.87 671.891 1310.69 666.276C1311.51 660.661 1312.53 655.909 1313.14 651.374H1336.45L1338.29 654.182Z" fill="white"/>
<path d="M1508.8 823.492C1511.04 824.006 1513.23 824.729 1515.35 825.652C1516.55 826.041 1517.59 826.853 1518.3 827.953C1519 829.053 1519.33 830.375 1519.23 831.699C1519.31 835.586 1518.31 839.412 1516.37 842.714C1515.33 844.041 1513.99 845.079 1512.48 845.737C1510.78 846.668 1508.88 847.115 1506.96 847.033H1500.01C1495.31 846.777 1490.6 846.777 1485.9 847.033H1461.37C1445.94 847.027 1430.56 848.985 1415.57 852.864C1405.45 856.164 1395.04 858.335 1384.49 859.343C1378.46 859.893 1372.45 857.959 1367.73 853.944C1365.67 851.818 1364.06 849.258 1363 846.429C1361.94 843.601 1361.47 840.568 1361.59 837.53C1361.62 834.954 1362.57 832.483 1364.25 830.619C1367.29 827.346 1370.73 824.514 1374.48 822.196C1379.18 819.389 1382.65 817.013 1385.11 815.285C1386.83 814.047 1388.41 812.597 1389.81 810.966C1400.65 797.144 1410.26 782.89 1420.89 767.772C1430.67 753.038 1438.96 737.257 1445.63 720.691C1451.77 705.742 1456.97 690.374 1461.16 674.69C1464.69 661.544 1466.54 647.964 1466.69 634.303C1466.66 629.855 1465.61 625.48 1463.62 621.561C1461.82 617.154 1459.09 613.24 1455.64 610.115C1452.4 606.839 1448.58 604.271 1444.4 602.556C1440.47 600.794 1436.16 600.197 1431.93 600.828C1426.07 601.324 1420.44 603.407 1415.57 606.875C1411.01 609.831 1406.94 613.551 1403.51 617.89C1400.41 622.004 1397.8 626.5 1395.74 631.28C1394.07 634.943 1393.03 638.893 1392.67 642.942C1392.67 647.477 1392.67 651.797 1392.67 655.684C1392.46 659.064 1392.46 662.455 1392.67 665.835C1392.67 669.074 1392.67 672.314 1394.1 675.553C1394.75 679.285 1395.64 682.965 1396.76 686.568L1398.6 696.934C1398.87 700.168 1398.87 703.42 1398.6 706.653C1398.71 708.981 1398.22 711.297 1397.17 713.348C1396.51 714.264 1395.63 714.984 1394.63 715.438C1393.63 715.892 1392.53 716.065 1391.45 715.94C1388.96 715.686 1386.56 714.834 1384.43 713.448C1382.31 712.063 1380.51 710.182 1379.18 707.949C1374.91 701.365 1371.73 694.062 1369.77 686.352C1367.33 676.103 1365.96 665.602 1365.68 655.036C1365.61 642.2 1367.19 629.412 1370.39 617.026C1371.72 612.794 1373.5 608.737 1375.7 604.932C1378.63 600.023 1382.29 595.647 1386.54 591.973C1391.24 587.447 1396.63 583.796 1402.49 581.175C1409.34 578.02 1416.69 576.261 1424.16 575.992C1432.89 575.509 1441.62 576.754 1449.92 579.663C1458.45 582.203 1466.43 586.456 1473.43 592.189C1480.44 598.069 1486.22 605.423 1490.4 613.786C1494.98 622.805 1497.23 632.932 1496.95 643.158C1496.9 649.397 1496.28 655.617 1495.11 661.731C1494.08 669.09 1492.37 676.324 1489.99 683.328C1484.64 700.236 1477.79 716.577 1469.55 732.137C1462.11 747.202 1453.92 761.837 1445.01 775.979C1435.49 791.03 1425.11 805.454 1413.94 819.173H1470.16L1489.18 821.333L1500.01 822.844L1508.8 823.492Z" fill="white"/>
<path d="M1677.27 823.491C1679.58 824.004 1681.83 824.727 1684.02 825.65C1685.19 826.079 1686.18 826.908 1686.85 828.004C1687.52 829.1 1687.82 830.4 1687.7 831.698C1687.78 835.584 1686.78 839.41 1684.84 842.712C1683.83 843.985 1682.57 845.016 1681.16 845.736C1679.38 846.666 1677.41 847.112 1675.43 847.031H1668.48C1663.78 846.775 1659.07 846.775 1654.37 847.031H1629.84C1614.41 847.04 1599.03 848.998 1584.04 852.863C1573.93 856.181 1563.51 858.352 1552.96 859.342C1546.98 859.927 1541.03 857.986 1536.4 853.942C1534.31 851.836 1532.66 849.284 1531.57 846.454C1530.47 843.625 1529.96 840.582 1530.06 837.529C1530.07 836.231 1530.33 834.949 1530.82 833.76C1531.31 832.572 1532.03 831.502 1532.93 830.618C1535.84 827.287 1539.22 824.447 1542.95 822.195C1546.6 820.083 1550.15 817.777 1553.58 815.284C1555.3 814.045 1556.88 812.595 1558.28 810.964C1569.12 797.142 1578.73 782.888 1589.36 767.771C1599.21 753.042 1607.57 737.262 1614.3 720.689C1620.3 705.702 1625.42 690.339 1629.64 674.688C1633.16 661.543 1635.01 647.962 1635.16 634.302C1635.13 629.853 1634.08 625.478 1632.09 621.559C1630.29 617.208 1627.64 613.308 1624.32 610.113C1620.97 606.877 1617.09 604.315 1612.87 602.554C1608.94 600.793 1604.63 600.195 1600.4 600.826C1594.55 601.36 1588.93 603.44 1584.04 606.874C1579.54 609.832 1575.54 613.554 1572.18 617.888C1569.03 622 1566.35 626.496 1564.21 631.278C1562.54 634.941 1561.5 638.891 1561.14 642.94C1561.14 647.476 1561.14 651.795 1561.14 655.683C1560.93 659.063 1560.93 662.453 1561.14 665.833C1561.14 669.073 1561.14 672.312 1562.78 675.552C1564.41 678.791 1564.21 682.679 1565.23 686.566L1567.07 696.933C1567.67 700.136 1568.01 703.387 1568.09 706.651C1568.14 709 1567.58 711.317 1566.46 713.346C1565.81 714.279 1564.94 715.011 1563.93 715.467C1562.92 715.923 1561.82 716.085 1560.73 715.938C1558.25 715.684 1555.85 714.832 1553.72 713.447C1551.59 712.062 1549.8 710.18 1548.47 707.947C1544.28 701.314 1541.1 694.026 1539.06 686.35C1536.71 676.081 1535.34 665.591 1534.97 655.035C1534.9 642.198 1536.48 629.41 1539.67 617.024C1540.77 612.223 1542.42 607.581 1544.58 603.202C1547.37 598.251 1550.97 593.863 1555.21 590.244C1559.91 585.718 1565.3 582.066 1571.16 579.446C1578.01 576.291 1585.36 574.532 1592.83 574.262C1601.56 573.78 1610.3 575.025 1618.59 577.934C1627.14 580.427 1635.13 584.684 1642.11 590.46C1649.19 596.263 1654.98 603.635 1659.08 612.057C1663.72 621.055 1666.05 631.183 1665.82 641.429C1665.81 647.681 1665.12 653.912 1663.78 660.002C1662.72 667.334 1661.08 674.558 1658.87 681.599C1653.41 698.465 1646.57 714.797 1638.43 730.408C1630.99 746.113 1622.66 761.331 1613.48 775.977C1604.03 791.078 1593.65 805.507 1582.41 819.171H1638.63L1657.85 821.331L1668.48 822.843L1677.27 823.491Z" fill="white"/>
</svg>
