<svg width="1168" height="412" viewBox="0 0 1168 412" fill="none" xmlns="http://www.w3.org/2000/svg">
<g clip-path="url(#clip0_1912_334)">
<rect width="1168" height="444" rx="16" fill="url(#paint0_linear_1912_334)"/>
<g opacity="0.1" clip-path="url(#clip1_1912_334)">
<path d="M1144.85 106.164C1133.24 149.582 1041.1 211.427 1024.44 190.98C1007.78 170.534 1038.83 146.3 1109.01 118.533C1179.18 90.7653 1095.63 -13.2362 1095.63 -13.2362C1097.65 34.9781 1020.66 101.115 1010.81 84.707C1000.97 68.299 1024.7 30.1819 1045.14 22.1041C1065.59 14.0263 1089.82 -2.38169 1074.68 -31.9161C1059.53 -61.4505 990.112 -116.985 990.112 -116.985C990.112 -116.985 892.169 -13.9935 933.82 35.4829C975.471 84.9594 967.646 99.8528 938.111 93.0372C908.324 86.2216 875.508 -0.867111 903.023 -47.062C903.023 -47.062 801.546 55.6774 859.1 124.339C916.655 192.747 902.518 208.651 885.606 216.981C868.693 225.311 799.779 124.086 834.11 5.44366C834.11 5.44366 721.273 75.3671 739.953 169.776C758.633 263.933 863.139 254.593 842.945 284.632C822.75 314.672 725.059 299.021 711.933 150.339C711.933 150.339 642.262 205.117 673.311 270.496C704.36 336.128 782.866 316.691 775.798 350.012C768.73 383.333 666.243 359.604 645.544 273.02C645.544 273.02 603.135 370.964 705.37 445.683C776.555 497.684 855.061 456.285 896.46 426.499C896.46 426.751 808.109 704.677 817.702 746.329L887.373 733.959L920.946 398.731C928.771 365.158 941.14 328.05 961.335 299.273C1007.02 234.146 971.18 124.844 970.675 123.581C969.665 121.057 970.927 118.28 973.704 117.271C976.228 116.261 979.257 117.775 980.015 120.552C981.529 125.096 1017.63 235.661 969.413 304.827C948.713 334.109 936.597 373.488 929.024 408.071C1072.91 614.055 1173.38 448.208 1173.38 448.208C1042.62 498.189 1001.22 406.304 1114.81 423.974C1228.41 441.644 1206.19 338.653 1206.19 338.653C1196.6 361.119 1066.09 407.819 1074.68 356.828C1083.26 305.837 1137.78 353.798 1176.15 326.788C1214.52 299.778 1177.92 258.379 1177.92 258.379C1132.99 294.73 1017.12 288.166 1010.05 248.787C1002.99 209.408 1145.1 247.777 1184.48 232.127C1224.12 216.981 1144.85 106.164 1144.85 106.164ZM934.577 286.904C928.519 288.419 904.033 280.341 895.45 271.001C886.868 261.661 895.703 250.554 895.703 250.554C899.742 240.962 945.179 255.603 951.995 268.729C958.811 282.36 940.636 285.137 934.577 286.904ZM947.451 171.796C936.092 175.33 914.13 160.436 920.946 143.271C927.762 126.106 938.869 128.63 938.869 128.63C938.869 128.63 953.005 129.892 956.286 140.242C959.568 150.844 958.811 168.009 947.451 171.796ZM1050.44 367.935C1037.82 376.265 1013.34 380.809 995.666 368.439C977.995 355.818 987.84 333.352 987.84 333.352C987.84 333.352 1001.72 316.943 1021.41 319.973C1041.36 323.254 1063.06 359.352 1050.44 367.935Z" fill="url(#paint1_linear_1912_334)"/>
<path d="M814.168 267.72C794.731 231.37 699.059 195.524 688.457 217.234C677.855 239.195 710.924 254.088 779.585 264.186C848.246 274.283 795.488 384.848 795.488 384.848C787.158 341.177 704.36 298.516 699.059 315.177C693.758 331.837 723.04 361.119 742.982 363.896C762.924 366.925 787.915 376.265 780.594 406.052C773.274 435.586 723.04 499.956 723.04 499.956C723.04 499.956 613.738 428.518 640.495 375.255C667.253 322.245 657.156 310.381 632.165 322.75C606.922 335.119 596.067 419.936 630.146 455.528C630.146 455.528 517.814 385.1 554.669 311.39C591.776 237.933 575.873 226.826 558.96 222.787C542.047 218.748 501.658 324.012 557.445 422.965C557.445 422.965 441.832 384.09 438.551 295.992C435.269 207.894 530.94 194.01 506.454 171.544C481.969 149.077 397.909 183.408 417.599 319.468C417.599 319.468 343.636 285.137 357.773 220.01C371.656 154.883 446.123 155.388 432.745 127.116C419.366 98.8434 332.53 141.757 332.277 223.544C332.277 223.544 273.713 144.786 349.442 56.435C402.2 -5.15814 481.211 15.2888 524.377 33.2114C524.377 33.2114 386.55 -197.006 386.297 -236.385L451.425 -239.919L552.397 52.901C566.281 81.4257 585.465 111.97 609.699 133.426C664.224 182.146 655.389 287.409 655.136 288.671C654.884 291.196 656.398 293.468 659.175 293.72C661.699 293.973 663.971 292.206 664.224 289.681C664.729 285.137 673.564 178.612 615.757 127.116C591.019 105.154 571.834 72.5906 557.95 43.3086C643.272 -171.258 767.973 -44.0325 767.973 -44.0325C640.243 -61.1978 622.825 29.6773 720.516 -9.95435C818.207 -49.586 820.226 47.0951 820.226 47.0951C806.847 28.92 680.127 15.0363 698.807 58.4544C717.487 101.873 755.856 47.8524 795.993 64.0079C836.129 80.1635 811.896 124.844 811.896 124.844C764.186 101.873 661.699 132.164 663.719 169.019C665.738 205.874 784.633 141.252 823.255 147.058C861.625 151.854 814.168 267.72 814.168 267.72ZM587.737 150.592C581.931 150.592 561.989 162.961 555.931 173.058C550.125 183.155 560.475 191.233 560.475 191.233C566.028 199.059 603.64 176.34 606.922 162.961C610.456 149.582 593.796 150.844 587.737 150.592ZM623.582 250.807C612.728 250.05 596.067 267.972 605.912 281.856C615.505 295.74 625.097 291.196 625.097 291.196C625.097 291.196 637.466 287.157 638.223 277.06C638.728 266.962 634.437 251.564 623.582 250.807ZM674.321 53.6583C661.195 48.8621 638.476 49.8718 625.349 64.7652C612.223 79.6587 625.602 97.8337 625.602 97.8337C625.602 97.8337 641.505 109.698 658.418 102.63C675.583 95.5618 687.447 58.4545 674.321 53.6583Z" fill="#161440"/>
<path d="M233.579 224.301C227.016 228.593 133.364 289.681 43.7509 271.758C48.5471 283.37 53.3433 295.234 58.6443 307.099C86.4118 304.574 127.306 297.759 175.52 280.846C175.52 280.846 151.034 327.041 79.5961 352.789C85.402 364.905 91.4604 376.77 98.0236 388.381C144.471 395.954 251.754 409.586 284.065 381.313C284.065 381.313 245.191 443.411 117.966 423.974C130.082 444.674 143.461 465.12 157.597 484.81C198.744 472.189 251.754 453.004 278.764 431.8C278.764 431.8 238.88 492.635 204.297 543.374C218.686 559.782 234.084 575.433 250.239 590.326L381.756 516.869L291.638 625.162C319.91 646.618 350.707 665.803 383.775 681.454L482.981 700.638L554.671 643.589C513.273 590.831 445.621 487.334 359.29 330.07C240.647 114.494 131.344 24.1236 124.781 18.8225C131.344 22.1041 249.482 83.4449 373.173 315.681C471.621 500.461 549.37 592.093 579.409 624.152L601.876 606.229C601.876 606.229 613.488 545.141 609.196 461.082C556.943 466.635 507.467 453.761 496.612 450.732C519.078 456.285 575.875 442.654 607.429 434.071C605.157 406.809 600.866 377.527 594.05 347.74C504.942 390.906 447.388 366.925 444.359 365.663C517.564 367.177 560.477 334.614 583.448 307.351C579.914 295.739 575.875 284.127 571.584 272.516C526.651 324.516 418.611 355.818 418.611 355.818C475.913 334.109 525.389 252.574 545.331 215.719C523.875 176.087 495.602 137.97 458.747 104.397C457.99 103.639 457.485 103.134 456.728 102.63C414.824 151.349 353.989 211.932 343.386 222.282C383.775 179.116 403.717 111.97 413.057 64.5125C406.747 59.2115 400.688 53.9104 394.378 49.1142C388.824 77.6389 378.474 114.241 361.309 136.203C362.571 132.164 377.465 79.6584 377.717 35.9878C348.183 13.0166 319.406 -6.92542 291.891 -23.8383L261.851 93.2897L267.91 -38.4793C232.317 -58.6738 198.239 -73.3148 165.927 -83.412C165.423 -54.13 163.656 -5.66326 155.578 7.21072C155.578 7.21072 153.054 -48.3241 145.228 -89.2179C134.626 -91.9947 124.276 -94.0141 114.179 -95.5287L128.82 -5.9157L87.9263 -98.5579C47.5374 -101.587 10.6825 -95.7811 -22.386 -82.4023L80.8583 -9.70217L-40.3086 -48.5765C-40.3086 -48.5765 -36.7746 -16.5178 -26.4249 34.4733C6.39114 41.7937 60.6638 51.3861 100.043 45.3278C100.043 45.3278 34.1585 75.6195 -16.8325 78.3962C-12.5412 97.0761 -7.49257 117.018 -1.43422 138.222C57.3822 123.329 138.665 95.3091 138.665 95.3091C102.062 138.727 54.1006 177.854 19.0127 204.107C22.0419 213.447 25.3235 222.787 28.8575 232.379C66.9746 241.214 174.51 261.661 233.579 224.301Z" fill="url(#paint2_linear_1912_334)"/>
<path d="M1003.24 -108.403C1019.14 -130.112 1038.33 -94.0141 1040.85 -81.1402C1043.38 -68.2662 1051.46 -47.5668 1055.75 -42.0134C1059.79 -36.2074 1065.34 -19.547 1063.32 7.71552C1061.05 34.9781 1060.79 34.9781 1065.84 55.9298C1070.89 76.8816 1061.8 96.8236 1073.42 104.397C1085.28 111.717 1092.1 150.591 1085.79 172.553C1079.47 194.514 1104.47 208.146 1104.47 208.146C1104.47 208.146 1119.11 214.456 1124.66 261.913C1130.21 309.118 1133.24 302.05 1150.91 318.963C1168.58 335.876 1165.3 404.285 1155.2 416.654C1145.11 429.023 1146.12 438.868 1150.91 442.149C1155.46 445.431 1159.75 449.974 1160.25 458.81C1160.51 467.897 1177.42 501.723 1238.51 501.975C1238.51 501.975 1193.57 514.344 1162.27 486.325C1142.84 468.907 1143.59 457.295 1139.3 446.44C1132.23 409.838 1117.09 345.721 1096.89 325.779C1071.65 300.788 1045.65 226.321 1046.91 194.767C1047.67 178.864 1042.37 147.815 1037.32 117.523C1032.02 84.707 1026.21 50.8812 1028.48 37.7548C1032.52 12.7642 1026.46 -33.1783 1026.21 -34.9453C1026.21 -35.7026 1025.45 -36.2075 1024.7 -36.2075C1023.94 -36.2075 1023.44 -35.4501 1023.44 -34.6929C1023.44 -34.188 1029.75 12.5117 1025.71 37.25C1023.69 50.6288 1028.99 83.1924 1034.54 117.775C1039.59 147.815 1044.64 179.116 1043.88 194.514C1042.62 227.33 1068.62 301.545 1094.62 327.546C1108.25 341.177 1122.89 381.313 1134.5 438.363C1131.73 434.576 1127.44 430.79 1120.87 426.498C1090.58 407.314 1054.48 390.401 1053.98 317.701C1053.98 317.701 1057.26 305.079 1046.15 294.477C1035.05 284.127 1014.85 263.428 1017.38 220.515C1019.9 177.602 1008.54 186.689 1005.26 164.98C1001.98 143.271 1010.56 113.737 1004.5 102.63C998.445 91.5226 991.881 67.5417 1000.21 50.6288C1008.54 33.7159 999.202 13.0166 999.202 13.0166C999.202 13.0166 987.842 -10.4595 996.93 -40.7512C1006.02 -70.7905 987.338 -86.6936 1003.24 -108.403Z" fill="url(#paint3_linear_1912_334)"/>
<path d="M801.547 255.098C782.109 218.748 686.438 182.903 675.836 204.612C665.234 226.573 698.302 241.467 766.964 251.564C835.625 261.661 782.867 372.226 782.867 372.226C774.537 328.556 691.739 285.895 686.438 302.555C681.137 319.216 710.419 348.498 730.361 351.274C750.303 354.304 775.294 363.643 767.973 393.43C760.653 422.965 710.419 487.335 710.419 487.335C710.419 487.335 601.117 415.897 627.874 362.634C654.632 309.623 644.535 297.759 619.544 310.128C594.301 322.497 583.446 407.314 617.524 442.907C617.524 442.907 505.193 372.479 542.048 298.769C579.155 225.311 563.252 214.204 546.339 210.165C529.426 206.127 489.037 311.39 544.824 410.343C544.824 410.343 429.211 371.469 425.929 283.37C422.648 195.272 518.319 181.388 493.833 158.922C469.348 136.456 385.288 170.786 404.978 306.846C404.978 306.846 331.015 272.516 345.152 207.389C359.035 142.262 433.502 142.766 420.124 114.494C406.745 86.2218 319.908 129.135 319.656 210.923C319.656 210.923 261.092 132.164 336.821 43.8134C389.579 -17.7797 468.59 2.66718 511.756 20.5898C511.756 20.5898 373.929 -209.627 373.676 -249.006L438.803 -252.541L539.776 40.2794C553.659 68.8041 572.844 99.3482 597.078 120.805C651.603 169.524 642.768 274.788 642.515 276.05C642.263 278.574 643.777 280.846 646.554 281.099C649.078 281.351 651.35 279.584 651.603 277.06C652.108 272.516 660.943 165.99 603.136 114.494C578.398 92.5326 559.213 59.969 545.329 30.687C630.651 -183.879 755.352 -56.6541 755.352 -56.6541C627.622 -73.8194 610.204 17.0557 707.895 -22.5759C805.586 -62.2076 807.605 34.4735 807.605 34.4735C794.226 16.2984 667.506 2.41473 686.186 45.8329C704.866 89.251 743.235 35.2308 783.372 51.3864C823.508 67.5419 799.275 112.222 799.275 112.222C751.565 89.251 649.078 119.543 651.098 156.398C653.117 193.253 772.012 128.63 810.634 134.436C849.004 139.232 801.547 255.098 801.547 255.098ZM575.116 137.97C569.31 137.97 549.368 150.339 543.31 160.437C537.504 170.534 547.854 178.612 547.854 178.612C553.407 186.437 591.019 163.718 594.301 150.339C597.835 136.96 581.174 138.223 575.116 137.97ZM610.961 238.185C600.107 237.428 583.446 255.351 593.291 269.234C602.883 283.118 612.476 278.574 612.476 278.574C612.476 278.574 624.845 274.535 625.602 264.438C626.107 254.341 621.816 238.943 610.961 238.185ZM661.7 41.0367C648.574 36.2405 625.855 37.2502 612.728 52.1436C599.602 67.0371 612.981 85.2121 612.981 85.2121C612.981 85.2121 628.884 97.0764 645.797 90.0083C662.962 82.9402 674.826 45.8329 661.7 41.0367Z" fill="url(#paint4_linear_1912_334)"/>
<path d="M-30.2147 256.36C16.2325 227.583 82.117 334.109 96.0007 360.867C109.884 387.624 164.914 413.877 170.215 373.488C175.516 332.847 106.603 237.175 86.4084 218.748C66.2139 200.068 -4.71922 137.213 42.9902 101.115C90.6997 65.0175 151.788 188.204 151.788 188.204C151.788 188.204 175.264 224.806 212.624 215.214C249.984 205.622 196.468 111.465 175.012 81.6779C153.555 51.8911 122.506 -19.5469 161.128 -44.0327C199.75 -68.5185 252.003 -23.5858 248.974 49.8716C245.945 123.329 288.858 134.184 303.499 92.7849C318.392 51.3862 303.247 -53.3726 384.782 -86.6935C466.317 -120.014 444.103 -13.2361 421.384 9.98755C398.665 32.9588 388.568 112.727 361.053 124.591C333.538 136.455 354.742 167.757 373.422 162.961C392.102 158.165 506.201 53.9105 536.24 128.125C566.28 202.34 372.16 227.835 372.16 227.835C372.16 227.835 305.518 230.612 298.45 283.37C291.382 336.128 419.365 260.147 486.764 283.623C553.91 307.099 451.928 396.207 377.461 388.129C302.994 380.051 259.071 406.809 247.459 435.839C236.1 464.868 304.004 450.48 311.577 450.48C319.15 450.48 384.529 445.683 410.277 490.868C436.025 536.054 327.732 583.006 273.965 565.083C227.265 549.18 139.924 592.598 110.894 619.356L101.302 624.152C96.5056 598.152 74.5441 489.859 30.6211 452.499C-19.3602 409.838 -76.662 285.137 -30.2147 256.36Z" fill="#161440"/>
<path d="M-42.8358 243.739C3.61146 214.961 69.4959 321.487 83.3796 348.245C97.2633 375.003 152.293 401.255 157.594 360.866C162.895 320.225 93.9817 224.554 73.7873 206.126C53.5928 187.446 -17.3403 124.591 30.3691 88.4935C78.0786 52.3959 139.167 175.582 139.167 175.582C139.167 175.582 162.643 212.185 200.003 202.592C237.363 193 183.847 98.8432 162.391 69.0564C140.934 39.2695 109.885 -32.1685 148.507 -56.6543C187.129 -81.1401 239.382 -36.2074 236.353 37.25C233.324 110.707 276.237 121.562 290.878 80.1633C305.771 38.7646 290.625 -65.9942 372.161 -99.3151C453.696 -132.636 431.482 -25.8577 408.763 -2.63405C386.044 20.3372 375.947 100.105 348.432 111.97C320.917 123.834 342.121 155.135 360.801 150.339C379.481 145.543 493.58 41.2889 523.619 115.504C553.658 189.718 359.539 215.214 359.539 215.214C359.539 215.214 292.897 217.991 285.829 270.749C278.761 323.507 406.744 247.525 474.143 271.001C541.289 294.477 439.307 383.585 364.84 375.507C290.373 367.43 246.45 394.187 234.838 423.217C223.479 452.247 291.383 437.858 298.956 437.858C306.529 437.858 371.908 433.062 397.656 478.247C423.404 523.432 315.111 570.384 261.343 552.462C214.644 536.558 127.303 579.977 98.2731 606.734L88.6807 611.53C83.8845 585.53 61.923 477.237 18 439.877C-31.9813 397.217 -89.2831 272.516 -42.8358 243.739Z" fill="url(#paint5_linear_1912_334)"/>
<path d="M3.86458 335.371C93.9824 435.838 125.536 512.83 129.575 523.432C116.196 552.461 95.2446 598.404 87.6717 614.56L95.2446 614.055C102.818 597.899 123.264 553.219 135.886 525.956C194.45 482.791 348.18 495.917 349.695 495.917C351.462 496.169 353.229 494.655 353.229 492.888C353.481 491.121 351.967 489.354 350.2 489.354C344.142 488.849 206.314 477.237 140.935 514.597C162.139 467.645 188.392 408.828 215.149 346.225C256.296 323.759 412.298 316.186 413.812 315.934C415.579 315.934 417.094 314.167 417.094 312.4C417.094 310.633 415.327 309.118 413.56 309.118C407.249 309.37 269.422 316.186 219.188 336.885C237.868 293.467 256.548 248.282 274.218 204.107C309.558 180.631 450.92 154.63 452.434 154.378C454.201 154.125 455.464 152.358 455.211 150.591C454.959 148.824 453.192 147.562 451.425 147.815C445.871 148.824 323.442 171.543 278.509 194.262C306.782 122.824 331.52 54.4152 346.666 1.15225C347.171 -0.614766 345.909 -2.38178 344.394 -2.88664C342.627 -3.3915 340.86 -2.38178 340.355 -0.614758C325.209 53.153 300.219 122.067 271.694 194.009C255.286 164.223 186.877 36.9974 188.644 6.4533C188.644 4.68628 187.382 2.91926 185.362 2.91926C183.595 2.91926 181.828 4.18142 181.828 6.20087C180.061 41.0363 259.072 185.174 268.412 202.087C250.742 246.515 231.81 291.953 213.13 335.623C198.994 306.846 142.197 195.524 92.7203 165.99C91.2057 164.98 89.1862 165.485 88.1765 167.252C87.1668 168.766 87.6717 170.786 89.4387 171.796C140.43 202.34 202.78 329.312 209.848 343.701C182.333 407.819 155.576 467.645 134.119 514.849C124.527 492.383 90.4484 420.945 9.41806 330.827C8.15591 329.565 6.13646 329.313 4.62187 330.575C2.60243 331.837 2.60242 334.109 3.86458 335.371Z" fill="url(#paint6_linear_1912_334)"/>
</g>
</g>
<defs>
<linearGradient id="paint0_linear_1912_334" x1="70.5" y1="-53.9999" x2="1110" y2="487.5" gradientUnits="userSpaceOnUse">
<stop stop-color="#06252F"/>
<stop offset="1" stop-color="#0CA5D3"/>
</linearGradient>
<linearGradient id="paint1_linear_1912_334" x1="1183.18" y1="435.47" x2="668.496" y2="212.705" gradientUnits="userSpaceOnUse">
<stop stop-color="#161440"/>
<stop offset="0.00134342" stop-color="#3C3785"/>
<stop offset="1" stop-color="#161440"/>
</linearGradient>
<linearGradient id="paint2_linear_1912_334" x1="-108.705" y1="62.1275" x2="653.872" y2="519.079" gradientUnits="userSpaceOnUse">
<stop stop-color="#161440"/>
<stop offset="0.00134342" stop-color="#3C3785"/>
<stop offset="1" stop-color="#161440"/>
</linearGradient>
<linearGradient id="paint3_linear_1912_334" x1="918.623" y1="128.735" x2="1319.47" y2="268.803" gradientUnits="userSpaceOnUse">
<stop offset="0.00134342" stop-color="#EC008C"/>
<stop offset="1" stop-color="#F15F70"/>
</linearGradient>
<linearGradient id="paint4_linear_1912_334" x1="467.466" y1="-270.937" x2="649.811" y2="501.706" gradientUnits="userSpaceOnUse">
<stop offset="0.00134342" stop-color="#EC008C"/>
<stop offset="1" stop-color="#F15F70"/>
</linearGradient>
<linearGradient id="paint5_linear_1912_334" x1="89.3557" y1="611.627" x2="376.622" y2="-117.432" gradientUnits="userSpaceOnUse">
<stop offset="0.00134342" stop-color="#344298"/>
<stop offset="0.1011" stop-color="#3B4397"/>
<stop offset="0.23" stop-color="#4B4494"/>
<stop offset="0.3748" stop-color="#624690"/>
<stop offset="0.5312" stop-color="#7F498B"/>
<stop offset="0.6971" stop-color="#A14F83"/>
<stop offset="0.8681" stop-color="#CA5779"/>
<stop offset="1" stop-color="#F15F70"/>
</linearGradient>
<linearGradient id="paint6_linear_1912_334" x1="342.2" y1="-3.77084" x2="97.1401" y2="618.171" gradientUnits="userSpaceOnUse">
<stop offset="0.00134342" stop-color="#344298"/>
<stop offset="0.1011" stop-color="#3B4397"/>
<stop offset="0.23" stop-color="#4B4494"/>
<stop offset="0.3748" stop-color="#624690"/>
<stop offset="0.5312" stop-color="#7F498B"/>
<stop offset="0.6971" stop-color="#A14F83"/>
<stop offset="0.8681" stop-color="#CA5779"/>
<stop offset="1" stop-color="#F15F70"/>
</linearGradient>
<clipPath id="clip0_1912_334">
<rect width="1168" height="412" rx="16" fill="white"/>
</clipPath>
<clipPath id="clip1_1912_334">
<rect width="1298" height="999.122" fill="white" transform="translate(-60 -252.541)"/>
</clipPath>
</defs>
</svg>
